HIERARCHY
ROOT Hips
{
  OFFSET -2.9740628571428576 95.22824285714285 -3.405862857142857
  CHANNELS 6 Xposition Zposition Yposition Zrotation Xrotation Yrotation
  JOINT LeftUpLeg
  {
    OFFSET 8.64259 1.9539799999999998 -2.3883499999999995
    CHANNELS 3 Zrotation Xrotation Yrotation
    JOINT LeftLeg
    {
      OFFSET 43.770199999999996 0.0 0.0
      CHANNELS 3 Zrotation Xrotation Yrotation
      JOINT LeftFoot
      {
        OFFSET 40.62380000000001 0.0 0.0
        CHANNELS 3 Zrotation Xrotation Yrotation
        JOINT LeftToeBase
        {
          OFFSET 12.724199999999998 0.0 0.0
          CHANNELS 3 Zrotation Xrotation Yrotation
          End Site
          {
            OFFSET 0.0 0.0 0.0
          }
        }
      }
    }
  }
  JOINT RightUpLeg
  {
    OFFSET -8.2249 1.9539799999999998 -2.59336
    CHANNELS 3 Zrotation Xrotation Yrotation
    JOINT RightLeg
    {
      OFFSET 43.56529999999999 0.0 0.0
      CHANNELS 3 Zrotation Xrotation Yrotation
      JOINT RightFoot
      {
        OFFSET 40.62380000000001 0.0 0.0
        CHANNELS 3 Zrotation Xrotation Yrotation
        JOINT RightToeBase
        {
          OFFSET 12.724199999999998 0.0 0.0
          CHANNELS 3 Zrotation Xrotation Yrotation
          End Site
          {
            OFFSET 0.0 0.0 0.0
          }
        }
      }
    }
  }
  JOINT Spine
  {
    OFFSET 0.16583 0.8771399999999999 6.61349
    CHANNELS 3 Zrotation Xrotation Yrotation
    JOINT Spine1
    {
      OFFSET 7.389628571428571 2e-05 0.0
      CHANNELS 3 Zrotation Xrotation Yrotation
      JOINT Spine2
      {
        OFFSET 11.944500000000001 1e-05 0.0
        CHANNELS 3 Zrotation Xrotation Yrotation
        JOINT Spine3
        {
          OFFSET 14.725400000000004 4e-05 0.0
          CHANNELS 3 Zrotation Xrotation Yrotation
          JOINT Spine4
          {
            OFFSET 10.9679 0.0 0.0
            CHANNELS 3 Zrotation Xrotation Yrotation
            JOINT RightShoulder
            {
              OFFSET 2.46616 -1.6653 3.69651
              CHANNELS 3 Zrotation Xrotation Yrotation
              JOINT RightArm
              {
                OFFSET 13.001199999999999 0.0 0.0
                CHANNELS 3 Zrotation Xrotation Yrotation
                JOINT RightForeArm
                {
                  OFFSET 28.784799999999997 2e-05 0.0
                  CHANNELS 3 Zrotation Xrotation Yrotation
                  JOINT RightHand
                  {
                    OFFSET 26.568800000000003 2e-05 0.0
                    CHANNELS 3 Zrotation Xrotation Yrotation
                    JOINT RightHandMiddle1
                    {
                      OFFSET 8.03675 -0.8865800000000001 0.7278700000000001
                      CHANNELS 3 Zrotation Xrotation Yrotation
                      JOINT RightHandMiddle2
                      {
                        OFFSET 2.7883299999999993 0.0 0.0
                        CHANNELS 3 Zrotation Xrotation Yrotation
                        JOINT RightHandMiddle3
                        {
                          OFFSET 2.4115500000000005 0.0 0.0
                          CHANNELS 3 Zrotation Xrotation Yrotation
                          End Site
                          {
                            OFFSET 0.0 0.0 0.0
                          }
                        }
                      }
                    }
                    JOINT RightHandRing1
                    {
                      OFFSET 7.979660000000002 -0.8867700000000002 -1.00486
                      CHANNELS 3 Zrotation Xrotation Yrotation
                      JOINT RightHandRing2
                      {
                        OFFSET 2.8636799999999996 0.0 0.0
                        CHANNELS 3 Zrotation Xrotation Yrotation
                        JOINT RightHandRing3
                        {
                          OFFSET 2.11079 0.0 0.0
                          CHANNELS 3 Zrotation Xrotation Yrotation
                          End Site
                          {
                            OFFSET 0.0 0.0 0.0
                          }
                        }
                      }
                    }
                    JOINT RightHandPinky1
                    {
                      OFFSET 8.03707 -0.8875299999999999 -2.6069600000000004
                      CHANNELS 3 Zrotation Xrotation Yrotation
                      JOINT RightHandPinky2
                      {
                        OFFSET 1.8462757142857142 0.0 0.0
                        CHANNELS 3 Zrotation Xrotation Yrotation
                        JOINT RightHandPinky3
                        {
                          OFFSET 1.8843400000000001 0.0 0.0
                          CHANNELS 3 Zrotation Xrotation Yrotation
                          End Site
                          {
                            OFFSET 0.0 0.0 0.0
                          }
                        }
                      }
                    }
                    JOINT RightHandIndex1
                    {
                      OFFSET 7.92262 -0.8855000000000002 2.31175
                      CHANNELS 3 Zrotation Xrotation Yrotation
                      JOINT RightHandIndex2
                      {
                        OFFSET 2.63761 0.0 0.0
                        CHANNELS 3 Zrotation Xrotation Yrotation
                        JOINT RightHandIndex3
                        {
                          OFFSET 2.16656 0.0 0.0
                          CHANNELS 3 Zrotation Xrotation Yrotation
                          End Site
                          {
                            OFFSET 0.0 0.0 0.0
                          }
                        }
                      }
                    }
                    JOINT RightHandThumb1
                    {
                      OFFSET 3.4769 0.059800000000000006 2.8878899999999996
                      CHANNELS 3 Zrotation Xrotation Yrotation
                      JOINT RightHandThumb2
                      {
                        OFFSET 2.7768599999999997 0.00010000000000000002 -2e-05
                        CHANNELS 3 Zrotation Xrotation Yrotation
                        JOINT RightHandThumb3
                        {
                          OFFSET 2.420578571428571 -9e-05 0.0
                          CHANNELS 3 Zrotation Xrotation Yrotation
                          End Site
                          {
                            OFFSET 0.0 0.0 0.0
                          }
                        }
                      }
                    }
                  }
                }
              }
            }
            JOINT LeftShoulder
            {
              OFFSET 2.3803400000000003 -1.29275 -3.7523014285714282
              CHANNELS 3 Zrotation Xrotation Yrotation
              JOINT LeftArm
              {
                OFFSET 16.3182 5.9999999999999995e-05 0.0
                CHANNELS 3 Zrotation Xrotation Yrotation
                JOINT LeftForeArm
                {
                  OFFSET 27.090100000000003 0.0 0.0
                  CHANNELS 3 Zrotation Xrotation Yrotation
                  JOINT LeftHand
                  {
                    OFFSET 24.545099999999998 2e-05 0.0
                    CHANNELS 3 Zrotation Xrotation Yrotation
                    JOINT LeftHandMiddle1
                    {
                      OFFSET 9.218019999999997 0.66582 0.5455300000000002
                      CHANNELS 3 Zrotation Xrotation Yrotation
                      JOINT LeftHandMiddle2
                      {
                        OFFSET 2.66255 0.0 0.0
                        CHANNELS 3 Zrotation Xrotation Yrotation
                        JOINT LeftHandMiddle3
                        {
                          OFFSET 2.2804 0.0 0.0
                          CHANNELS 3 Zrotation Xrotation Yrotation
                          End Site
                          {
                            OFFSET 0.0 0.0 0.0
                          }
                        }
                      }
                    }
                    JOINT LeftHandRing1
                    {
                      OFFSET 9.247749999999998 0.66519 -1.1266999999999998
                      CHANNELS 3 Zrotation Xrotation Yrotation
                      JOINT LeftHandRing2
                      {
                        OFFSET 2.4704099999999998 0.0 -2e-05
                        CHANNELS 3 Zrotation Xrotation Yrotation
                        JOINT LeftHandRing3
                        {
                          OFFSET 2.2054000000000005 0.0 0.0
                          CHANNELS 3 Zrotation Xrotation Yrotation
                          End Site
                          {
                            OFFSET 0.0 0.0 0.0
                          }
                        }
                      }
                    }
                    JOINT LeftHandPinky1
                    {
                      OFFSET 9.35383857142857 0.66301 -2.7233200000000006
                      CHANNELS 3 Zrotation Xrotation Yrotation
                      JOINT LeftHandPinky2
                      {
                        OFFSET 1.63407 0.0 0.0
                        CHANNELS 3 Zrotation Xrotation Yrotation
                        JOINT LeftHandPinky3
                        {
                          OFFSET 1.71176 0.0 0.0
                          CHANNELS 3 Zrotation Xrotation Yrotation
                          End Site
                          {
                            OFFSET 0.0 0.0 0.0
                          }
                        }
                      }
                    }
                    JOINT LeftHandIndex1
                    {
                      OFFSET 8.731608571428572 0.6758999999999998 2.0680099999999997
                      CHANNELS 3 Zrotation Xrotation Yrotation
                      JOINT LeftHandIndex2
                      {
                        OFFSET 2.6668899999999995 0.0 0.0
                        CHANNELS 3 Zrotation Xrotation Yrotation
                        JOINT LeftHandIndex3
                        {
                          OFFSET 2.12946 0.0 2e-05
                          CHANNELS 3 Zrotation Xrotation Yrotation
                          End Site
                          {
                            OFFSET 0.0 0.0 0.0
                          }
                        }
                      }
                    }
                    JOINT LeftHandThumb1
                    {
                      OFFSET 4.967354285714285 -0.62265 3.3958599999999994
                      CHANNELS 3 Zrotation Xrotation Yrotation
                      JOINT LeftHandThumb2
                      {
                        OFFSET 2.15386 2e-05 0.0
                        CHANNELS 3 Zrotation Xrotation Yrotation
                        JOINT LeftHandThumb3
                        {
                          OFFSET 2.1951099999999997 -2.9999999999999997e-05 2e-05
                          CHANNELS 3 Zrotation Xrotation Yrotation
                          End Site
                          {
                            OFFSET 0.0 0.0 0.0
                          }
                        }
                      }
                    }
                  }
                }
              }
            }
            JOINT Neck
            {
              OFFSET 5.0226 -0.026629999999999994 0.0
              CHANNELS 3 Zrotation Xrotation Yrotation
              JOINT Head
              {
                OFFSET 6.693637142857143 2.9999999999999997e-05 0.0
                CHANNELS 3 Zrotation Xrotation Yrotation
                End Site
                {
                  OFFSET 0.0 0.0 0.0
                }
              }
            }
          }
        }
      }
    }
  }
}
MOTION
Frames: 4
Frame Time: 0.03333333
0.0 4.440892098500626e-16 97.5097 103.488 -89.9984 103.59 -171.453 2.8969999999999985 90.9464 -9.433800000000002 8.26597 2.2949200000000003 63.6391 1.01014 0.508478 28.7808 6.13914e-06 6.45851e-06 179.282 1.9961699999999993 88.87299999999999 -7.7861699999999985 -0.6139970000000003 -0.045901000000000025 62.8105 -1.2381499999999996 -0.6272410000000006 28.7808 1.4679100000000001e-05 3.03677e-05 0.008129560000000008 6.329940000000001 -90.1023 14.1935 0.004292300000000027 1.8105500000364927e-06 2.52251 0.005364919999999995 -4.4245300000467225e-06 -20.0126 -0.0008748060000000057 1.6060899999947864e-06 -6.231900000042145e-06 -0.0008656190000000397 9.77677999669524e-09 101.01899999999999 -18.7676 -84.9985 4.012609999999999 43.2038 -27.4247 -2.0289699999999997 0.501732 -4.918619999999997 -5.37983 -0.32001199999999974 -0.01623770000000002 -89.4043 88.9709 89.0941 -0.0604888 1.06078e-05 -9.78011e-07 -0.0639192 -1.0554800000000001e-05 2.16522e-06 -89.3952 88.9811 89.085 -1.1574200000000001 -1.26277e-05 4.27008e-07 2.576 7.98023e-06 -1.1462000000000001e-06 -88.8572 89.3579 88.54700000000001 -1.14578 1.5312100000000001e-06 0.00022296599999999995 1.1457700000000002 -2.44473e-06 -9.69995e-08 -89.42299999999999 88.9487 89.1127 0.40928400000000004 3.98039e-06 0.0005972659999999999 -0.6366 -5.95491e-06 -5.282269999999999e-08 104.36399999999999 40.5023 -88.8246 -7.66902 0.186173 -1.3504399999999999 -11.2634 4.32683e-06 6.78468e-05 -79.2151 -21.6954 93.8048 6.672329999999999 -38.0933 -16.8604 2.6246 39.2276 -6.7088699999999974 -0.8486400000000001 -0.02306180000000002 0.5723859999999998 -91.1871 -87.8289 -89.9986 3.4088800000000004 -5.294680000000001e-06 0.00328084 -0.9548610000000001 -3.2175299999999997e-06 -3.235240000000001e-07 -91.1871 -89.4015 -89.9985 2.85637 2.78774e-06 0.00248763 -3.1684400000000004 -2.6541199999999994e-07 -6.899709999999996e-09 88.8084 -89.7171 89.9969 2.54481 7.605139999999997e-07 0.00248803 -2.54482 -1.3784100000000005e-06 -6.918479999999999e-07 -91.1882 -86.1973 -89.9997 6.1310400000000005 -6.40888e-06 0.0066628 -2.04542 1.9411000000000008e-06 7.8193e-07 -101.949 -40.7242 -90.0694 10.0172 1.2979699999999997e-06 1.32814e-07 -2.66977 -5.1823500000000005e-06 -4.926230000000001e-06 1.7481400000000002 -0.0010247699999998972 -0.003570550000000061 -7.405539999999999 0.0009413449999999823 0.0036296400000000017
-0.017679999999998586 0.020700000000000163 97.49430000000001 -103.3 -89.9735 -103.221 -171.43599999999998 2.94773 90.9426 -9.582550000000001 8.29368 2.30513 63.6993 0.9435640000000001 0.46895299999999995 28.7808 6.13914e-06 6.45851e-06 179.296 2.5402999999999984 88.8703 -8.918500000000002 -0.7317540000000005 -0.0459021 63.1327 -1.44373 -0.752732 28.7808 1.4679100000000001e-05 3.03677e-05 0.005807420000000008 6.3303400000000005 -90.0734 14.1935 0.004292300000000027 1.8105500000364927e-06 2.52251 0.005364919999999995 -4.4245300000467225e-06 -20.0126 -0.0008748060000000057 1.6060899999947864e-06 -6.231900000042145e-06 -0.0008656190000000397 9.77677999669524e-09 101.039 -18.8015 -85.0079 4.00253 43.2353 -27.3735 -2.04595 0.5017250000000001 -4.9269099999999995 -5.37983 -0.32001199999999974 -0.01623770000000002 -89.4043 88.9709 89.0941 -0.0604888 1.06078e-05 -9.78011e-07 -0.0639192 -1.0554800000000001e-05 2.16522e-06 -89.3952 88.9811 89.085 -1.1574200000000001 -1.26277e-05 4.27008e-07 2.576 7.98023e-06 -1.1462000000000001e-06 -88.8572 89.3579 88.54700000000001 -1.14578 1.5312100000000001e-06 0.00022296599999999995 1.1457700000000002 -2.44473e-06 -9.69995e-08 -89.42299999999999 88.9487 89.1127 0.40928400000000004 3.98039e-06 0.0005972659999999999 -0.6366 -5.95491e-06 -5.282269999999999e-08 104.36399999999999 40.5023 -88.8246 -7.66902 0.186173 -1.3504399999999999 -11.2634 4.32683e-06 6.78468e-05 -79.2196 -21.6519 93.7272 6.656850000000002 -38.0526 -16.7811 2.570690000000001 39.2868 -6.616 -0.7494610000000002 -0.02306240000000015 0.39048000000000016 -91.1871 -87.8289 -89.9986 3.4088800000000004 -5.294680000000001e-06 0.00328084 -0.9548610000000001 -3.2175299999999997e-06 -3.235240000000001e-07 -91.1871 -89.4015 -89.9985 2.85637 2.78774e-06 0.00248763 -3.1684400000000004 -2.6541199999999994e-07 -6.899720000000006e-09 88.8084 -89.7171 89.9969 2.54481 7.605139999999997e-07 0.00248803 -2.54482 -1.3784100000000005e-06 -6.918479999999999e-07 -91.1882 -86.1973 -89.9997 6.1310400000000005 -6.40888e-06 0.0066628 -2.04542 1.9411000000000008e-06 7.8193e-07 -101.949 -40.7242 -90.0694 10.0172 1.2979699999999997e-06 1.32814e-07 -2.66977 -5.1823500000000005e-06 -4.926230000000001e-06 1.66106 -0.016282099999999966 -0.053330800000000345 -7.32114 0.014856399999999992 0.05530099999999999
-0.022919999999999163 0.043700000000001626 97.5017 -111.14 -89.9404 -111.05100000000002 -171.429 2.8992700000000013 90.9584 -9.54794 8.2384 2.2951499999999996 63.698 0.9249870000000002 0.4591590000000001 28.7808 6.13914e-06 6.45851e-06 179.293 2.2369100000000017 88.8782 -8.360680000000002 -0.7018009999999997 -0.045736900000000025 63.0111 -1.3353500000000005 -0.6876990000000003 28.7808 1.4679100000000001e-05 3.03677e-05 0.006516190000000005 6.33022 -90.0831 14.1935 0.004292300000000027 1.8105500000364927e-06 2.52251 0.005364919999999995 -4.4245300000467225e-06 -20.0126 -0.0008748060000000057 1.6060899999947864e-06 -6.231900000042145e-06 -0.0008656190000000397 9.77677999669524e-09 101.02 -18.7948 -84.9984 3.9763599999999997 43.2335 -27.3296 -2.02739 0.5017510000000001 -4.893430000000002 -5.37983 -0.32001199999999974 -0.01623770000000002 -89.4043 88.9709 89.0941 -0.0604888 1.06078e-05 -9.78011e-07 -0.0639192 -1.0554800000000001e-05 2.16522e-06 -89.3952 88.9811 89.085 -1.1574200000000001 -1.26277e-05 4.27008e-07 2.576 7.98023e-06 -1.1462000000000001e-06 -88.8572 89.3579 88.54700000000001 -1.14578 1.5312100000000001e-06 0.00022296599999999995 1.1457700000000002 -2.44473e-06 -9.69995e-08 -89.42299999999999 88.9487 89.1127 0.40928400000000004 3.98039e-06 0.0005972659999999999 -0.6366 -5.95491e-06 -5.282269999999999e-08 104.36399999999999 40.5023 -88.8246 -7.66902 0.186173 -1.3504399999999999 -11.2634 4.32683e-06 6.78468e-05 -79.263 -21.6964 93.6843 6.7072600000000016 -38.0467 -16.7239 2.5881 39.2909 -6.657669999999996 -0.8025530000000001 -0.023062300000000313 0.43347299999999933 -91.1871 -87.8289 -89.9986 3.4088800000000004 -5.294680000000001e-06 0.00328084 -0.9548610000000001 -3.2175299999999997e-06 -3.235240000000001e-07 -91.1871 -89.4015 -89.9985 2.85637 2.78774e-06 0.00248763 -3.1684400000000004 -2.6541199999999994e-07 -6.899720000000006e-09 88.8084 -89.7171 89.9969 2.54481 7.605139999999997e-07 0.00248803 -2.54482 -1.3784100000000005e-06 -6.918479999999999e-07 -91.1882 -86.1973 -89.9997 6.1310400000000005 -6.40888e-06 0.0066628 -2.04542 1.9411000000000008e-06 7.8193e-07 -101.949 -40.7242 -90.0694 10.0172 1.2979699999999997e-06 1.32814e-07 -2.66977 -5.1823500000000005e-06 -4.926230000000001e-06 1.5980299999999996 -0.011574500000000043 0.008765569999999556 -7.251950000000001 0.013463400000000014 0.0122202
-0.03001000000000076 0.07080000000000064 97.4913 -125.05099999999999 -89.8849 -124.953 -171.40200000000002 2.8289299999999997 90.9862 -9.546580000000002 8.22852 2.2924799999999994 63.7989 0.9168530000000001 0.456867 28.7808 6.13914e-06 6.45851e-06 179.301 2.273609999999998 88.89299999999999 -8.570250000000001 -0.6708420000000004 -0.044308000000000014 63.1834 -1.2927399999999998 -0.6649629999999997 28.7808 1.4679100000000001e-05 3.03677e-05 0.006594409999999995 6.33019 -90.0855 14.1935 0.004292300000000027 1.8105500000364927e-06 2.52251 0.005364919999999995 -4.4245300000467225e-06 -20.0126 -0.0008748060000000057 1.6060899999947864e-06 -6.231900000042145e-06 -0.0008656190000000397 9.77677999669524e-09 100.99600000000001 -18.7824 -85.0536 3.8624399999999994 43.2159 -27.1664 -1.9758099999999996 0.5017489999999999 -4.895449999999997 -5.37983 -0.32001199999999974 -0.01623770000000002 -89.4043 88.9709 89.0941 -0.0604888 1.06078e-05 -9.78011e-07 -0.0639192 -1.0554800000000001e-05 2.16522e-06 -89.3952 88.9811 89.085 -1.1574200000000001 -1.26277e-05 4.27008e-07 2.576 7.98023e-06 -1.1462000000000001e-06 -88.8572 89.3579 88.54700000000001 -1.14578 1.5312100000000001e-06 0.00022296599999999995 1.1457700000000002 -2.44473e-06 -9.69995e-08 -89.42299999999999 88.9487 89.1127 0.40928400000000004 3.98039e-06 0.0005972659999999999 -0.6366 -5.95491e-06 -5.282269999999999e-08 104.36399999999999 40.5023 -88.8246 -7.66902 0.186173 -1.3504399999999999 -11.2634 4.32683e-06 6.78468e-05 -79.2993 -21.719499999999996 93.6132 6.743320000000001 -38.0727 -16.633 2.60128 39.2876 -6.603839999999998 -0.7631819999999996 -0.02306279999999994 0.18353600000000014 -91.1871 -87.8289 -89.9986 3.4088800000000004 -5.294680000000001e-06 0.00328084 -0.9548610000000001 -3.2175299999999997e-06 -3.235240000000001e-07 -91.1871 -89.4015 -89.9985 2.85637 2.78774e-06 0.00248763 -3.1684400000000004 -2.6541199999999994e-07 -6.899709999999996e-09 88.8084 -89.7171 89.9969 2.54481 7.605139999999997e-07 0.00248803 -2.54482 -1.3784100000000005e-06 -6.918479999999999e-07 -91.1882 -86.1973 -89.9997 6.1310400000000005 -6.40888e-06 0.0066628 -2.04542 1.9411000000000008e-06 7.8193e-07 -101.949 -40.7242 -90.0694 10.0172 1.2979699999999997e-06 1.32814e-07 -2.66977 -5.1823500000000005e-06 -4.926230000000001e-06 1.4093900000000001 0.005449969999999915 0.10312499999999991 -7.09513 0.010287099999999993 -0.021031499999999998
